Naruto Shippuuden Episodes 80-90 MANGA EDIT

Format                                   : MPEG-4
Codec ID                                 : M4V 
File size                                : 501 MiB
Duration                                 : 2h 25mn
Overall bit rate mode                    : Variable
Overall bit rate                         : 483 Kbps
Encoded date                             : UTC 2013-01-19 23:07:43
Tagged date                              : UTC 2013-01-19 23:07:56
┬⌐TIM                                     : 00:00:00:00
┬⌐TSC                                     : 24000
┬⌐TSZ                                     : 1001

Video
ID                                       : 1
Format                                   : AVC
Format/Info                              : Advanced Video Codec
Format profile                           : Baseline@L3.1
Format settings, CABAC                   : No
Format settings, ReFrames                : 2 frames
Codec ID                                 : avc1
Codec ID/Info                            : Advanced Video Coding
Duration                                 : 2h 25mn
Source duration                          : 2h 25mn
Bit rate mode                            : Variable
Bit rate                                 : 355 Kbps
Width                                    : 854 pixels
Height                                   : 480 pixels
Display aspect ratio                     : 16:9
Frame rate mode                          : Variable
Frame rate                               : 23.976 fps
Minimum frame rate                       : 23.976 fps
Maximum frame rate                       : 24.000 fps
Standard                                 : NTSC
Color space                              : YUV
Chroma subsampling                       : 4:2:0
Bit depth                                : 8 bits
Scan type                                : Progressive
Bits/(Pixel*Frame)                       : 0.036
Stream size                              : 368 MiB (73%)
Source stream size                       : 368 MiB (73%)
Language                                 : English
Encoded date                             : UTC 2013-01-19 23:07:43

Audio
ID                                       : 2
Format                                   : AAC
Format/Info                              : Advanced Audio Codec
Format profile                           : LC
Codec ID                                 : 40
Duration                                 : 2h 25mn
Source duration                          : 2h 25mn
Bit rate mode                            : Variable
Bit rate                                 : 126 Kbps
Maximum bit rate                         : 212 Kbps
Channel(s)                               : 2 channels
Channel positions                        : Front: L R
Sampling rate                            : 44.1 KHz
Compression mode                         : Lossy
Stream size                              : 130 MiB (26%)